# xmcd
#
# Track frame offsets:
#	183
#	12818
#	21588
#	32808
#	46368
#	58290
#	72260
#	85628
#	95863
#	107948
#	120273
#	133108
#	146308
#	157570
#	170253
#	182288
#
# Disc length: 2669
#
# Revision: 4
# Processed by: cddbd v1.5.1PL0 Copyright (c) Steve Scherf et al.
# Submitted via: dBpowerAMP V4.0
# Normalized: r2:DSETVAR1,TDELIM( - ),TSWAP
#
DISCID=cc0a6b10
DTITLE=Various Artist - Lo Mejor del Soul 2 [CD2)
DYEAR=1993
DGENRE=Soul
TTITLE0=Dina Washington - Mad about the boy
TTITLE1=Sam Cooke - Only sixteen
TTITLE2=The Drifters - Save the last dance for me
TTITLE3=Percy Sledge - My special prayer
TTITLE4=Sam and Dave - Hold on I´m a comin´
TTITLE5=Joe Tex - Hold what you've got
TTITLE6=Eddie Floyd - Konck on wood
TTITLE7=The Marcels - Blue moon
TTITLE8=The Shirelles - Will you love me tomorrow
TTITLE9=The Platters - My prayer
TTITLE10=Mary Wells - My guy
TTITLE11=Gene Chandler - Nothing can stop me
TTITLE12=Brook Benton - It´s just a matter of time
TTITLE13=Ben E King - Don´t play that song
TTITLE14=Aretha Franklin - You make me feel like a natural woman
TTITLE15=Otis Redding - Try a little tenderness
EXTD=
EXTT0=
EXTT1=
EXTT2=
EXTT3=
EXTT4=
EXTT5=
EXTT6=
EXTT7=
EXTT8=
EXTT9=
EXTT10=
EXTT11=
EXTT12=
EXTT13=
EXTT14=
EXTT15=
PLAYORDER=
